<?xml version="1.0" encoding="utf-8"?>
<!-- Generator: Adobe Illustrator 16.0.4, SVG Export Plug-In . SVG Version: 6.00 Build 0)  -->
<!DOCTYPE svg PUBLIC "-//W3C//DTD SVG 1.1//EN" "http://www.w3.org/Graphics/SVG/1.1/DTD/svg11.dtd">
<svg version="1.1" xmlns="http://www.w3.org/2000/svg" xmlns:xlink="http://www.w3.org/1999/xlink" x="0px" y="0px" width="200px"
	 height="200px" viewBox="0 0 200 200" enable-background="new 0 0 200 200" xml:space="preserve">
<g id="Layer_1">
	<circle fill="#4EA2DA" cx="88.311" cy="74.011" r="0.751"/>
	<circle fill="#4EA2DA" cx="88.311" cy="80.199" r="0.751"/>
	<path fill="#4EA2DA" d="M193.67,100c0,5.57-0.49,11.03-1.42,16.34c-7.3,41.49-41.9,73.57-84.59,77.021
		c-2.53,0.21-5.08,0.31-7.66,0.31c-51.73,0-93.67-41.939-93.67-93.67C6.33,48.27,48.27,6.33,100,6.33
		C151.73,6.33,193.67,48.27,193.67,100z"/>
</g>
<g id="Layer_3">
	<path fill="#2D8ECD" d="M192.25,116.34c-7.3,41.49-41.9,73.57-84.59,77.021L39.4,125.1l-9.44-9.439l-2.8-5.84l7.06-7.061
		c0.91,1.45,2.52,2.41,4.37,2.41c2.85,0,5.16-2.31,5.16-5.16c0-1.84-0.96-3.46-2.41-4.37l23.54-23.55
		c7.58,2.65,13.74,8.31,17.08,15.55h81.6l10.96,10.96v0.01L192.25,116.34z"/>
	<path fill="#FFFFFF" d="M163.56,87.64h-81.6c-3.34-7.24-9.5-12.9-17.08-15.55c-3.08-1.09-6.38-1.68-9.82-1.68
		c-16.33,0-29.58,13.25-29.58,29.6c0,3.44,0.59,6.74,1.68,9.811c0.71,2.06,1.66,4.02,2.8,5.84c2.39,3.82,5.62,7.06,9.44,9.439
		c4.54,2.851,9.91,4.49,15.66,4.49c11.94,0,22.21-7.06,26.9-17.229h26.11c0.37,0,0.68-0.23,0.819-0.54
		c0.011-0.2,0.04-0.4,0.091-0.59c0.52-3.091,3.229-5.45,6.46-5.45c3.369,0,6.14,2.54,6.529,5.8c0.09,0.439,0.48,0.78,0.96,0.78h7.91
		c0.4,0,0.74-0.261,0.87-0.61c0-0.14,0.03-0.28,0.06-0.41c0.471-3.149,3.211-5.56,6.49-5.56c3.3,0,6.04,2.45,6.49,5.64v0.05
		c0.02,0.061,0.04,0.12,0.04,0.2c0,0.01,0,0.01,0,0.03c0.12,0.38,0.47,0.66,0.9,0.66h7.92c0.399,0,0.739-0.261,0.88-0.61
		c0.01-0.05,0.04-0.1,0.05-0.17c0.39-3.26,3.15-5.8,6.52-5.8c3.261,0,5.96,2.37,6.48,5.489c0.03,0.181,0.06,0.351,0.06,0.521
		c0.15,0.33,0.45,0.54,0.82,0.57h0.061c4.97-0.03,6.039-2.75,6.039-2.75V98.6L163.56,87.64z M38.59,105.17
		c-1.85,0-3.46-0.96-4.37-2.41c-0.51-0.8-0.8-1.74-0.8-2.75c0-2.85,2.31-5.18,5.17-5.18c1.01,0,1.95,0.29,2.75,0.81
		c1.45,0.91,2.41,2.53,2.41,4.37C43.75,102.86,41.44,105.17,38.59,105.17z M161.51,96.74H86.53c-1.13,0-2.05-0.91-2.05-2.04
		c0-1.13,0.92-2.05,2.05-2.05h74.98c1.13,0,2.05,0.92,2.05,2.05C163.56,95.83,162.64,96.74,161.51,96.74z"/>
</g>
</svg>
