<?xml version="1.0" encoding="utf-8"?>
<!-- Generator: Adobe Illustrator 16.0.0, SVG Export Plug-In . SVG Version: 6.00 Build 0)  -->
<!DOCTYPE svg PUBLIC "-//W3C//DTD SVG 1.1//EN" "http://www.w3.org/Graphics/SVG/1.1/DTD/svg11.dtd">
<svg version="1.1" id="Layer_1" xmlns="http://www.w3.org/2000/svg" xmlns:xlink="http://www.w3.org/1999/xlink" x="0px" y="0px"
	 width="64px" height="64px" viewBox="0 0 64 64" enable-background="new 0 0 64 64" xml:space="preserve">
<circle fill="#4BA2D9" cx="32" cy="32" r="31.559"/>
<g>
	<path fill="#FFFFFF" d="M20.654,58.16c0,0-0.564-4.051-0.081-6.146c0.484-2.094,2.055-8.682,8.34-12.408
		c0,0,3.002-1.754,7.456-2.479c0,0,4.492-1.047,6.525-5.056c2.034-4.009-1.249-6.388-6.345-4.593
		c-5.098,1.792-6.337,3.693-7.173,4.773c0,0,7.28-5.415,8.039-0.18c0.139,0.956-0.081,2.277-3.244,4.191
		c-2.397,1.449-3.785,1.436-6.668,2.537c-8.824,3.363-10.04,8.309-9.649,11.906C18.337,55.158,20.654,58.16,20.654,58.16z"/>
	<path fill="#FFFFFF" d="M32.884,31.935c0,0-3.461,2.026-3.778,2.13c-0.317,0.107-2.418,1.133-3.793-0.936
		c-1.375-2.071-0.423-4.731-0.211-4.972c0.211-0.242,1.269-2.916,4.865-5.47c3.597-2.553,5.651-3.293,5.651-3.293l0.302-0.696
		c0,0-5.893,2.857-7.661,4.096c-1.768,1.239-5.032,3.625-6.255,5.696c-1.224,2.069-1.813,3.807-1.375,6.043
		c0.438,2.236,2.816,2.775,4.215,2.613C27.322,36.859,32.082,33.718,32.884,31.935z"/>
	<path fill="#FFFFFF" d="M36.464,19.424l-1.945,5.944l5.225-6.172l6.089,3.551l-2.735-5.53
		C43.097,17.217,40.045,17.807,36.464,19.424z"/>
	<path fill="#FFFFFF" d="M36.494,17.928l6.36-2.01c0,0,3.25-2.961,3.354-3.248c0,0-3.732-0.528-5.213-0.543
		c0,0-2.478-6.255-2.599-6.286c0,0-0.86,4.919-0.906,6.919c0,0-6.785,0.348-7.268,0.756C30.223,13.516,34.928,17.103,36.494,17.928z
		"/>
</g>
</svg>
