<?xml version="1.0" encoding="utf-8"?>
<!-- Generator: Adobe Illustrator 16.0.4, SVG Export Plug-In . SVG Version: 6.00 Build 0)  -->
<!DOCTYPE svg PUBLIC "-//W3C//DTD SVG 1.1//EN" "http://www.w3.org/Graphics/SVG/1.1/DTD/svg11.dtd">
<svg version="1.1" xmlns="http://www.w3.org/2000/svg" xmlns:xlink="http://www.w3.org/1999/xlink" x="0px" y="0px" width="200px"
	 height="200px" viewBox="0 0 200 200" enable-background="new 0 0 200 200" xml:space="preserve">
<g id="Layer_1">
	<path fill="#4EA2DA" d="M195.76,100c0,5.35-0.439,10.61-1.29,15.72c-6.05,36.65-32.899,66.271-68.02,76.34
		c-8.4,2.41-17.271,3.7-26.45,3.7c-52.89,0-95.76-42.87-95.76-95.76C4.24,47.11,47.11,4.24,100,4.24
		C152.89,4.24,195.76,47.11,195.76,100z"/>
</g>
<g id="Layer_3">
	<path fill="#2F8ECD" d="M194.47,115.72c-6.05,36.65-32.899,66.271-68.02,76.34l-38.93-38.92v-30.02l25.97-47.07l6.189-35.13
		L194.47,115.72z"/>
	<g>
		<path fill="#FFFFFF" d="M100.608,33.638c9.475,0,16.644,3.398,21.506,10.191c3.864,5.362,5.797,11.658,5.797,18.889
			c0,12.094-5.477,23.595-16.43,34.503c-3.819,3.803-5.853,8.228-6.103,13.277c-0.126,1.683-0.189,3.553-0.189,5.61v7.013H87.518
			v-7.013c0-11.034,2.712-19.229,8.135-24.592c5.859-5.797,9.879-11.749,12.062-17.859c1.246-3.553,1.869-7.293,1.869-11.221
			c0-4.051-0.904-7.23-2.711-9.537c-1.996-2.68-4.895-3.771-8.696-3.272c-3.553,0.437-6.11,2.898-7.667,7.387
			c-0.687,1.87-1.154,4.053-1.402,6.545l-17.018-2.992c0.623-7.293,3.054-13.433,7.293-18.42c2.867-3.366,6.856-5.797,11.968-7.293
			C94.031,34.044,97.116,33.638,100.608,33.638z M87.518,135.37h17.672v17.766H87.518V135.37z"/>
	</g>
	<path fill="#2F8ECD" d="M-3.875,20.707v21.805c0,2.351-1.904,4.255-4.255,4.255h-50.639l-5.942-5.833
		c0.096,0.053,0.879,0.503,0.883,0.503l1.201-2.727l14.78-14.776l3.256-3.259l10.088-10.082l7.412-9.723l0.698-0.915
		c-1.209-2.524-2.571-4.45-3.982-5.872l3.741-5.908L-3.875,20.707z"/>
</g>
</svg>
