<?xml version="1.0" encoding="utf-8"?>
<!-- Generator: Adobe Illustrator 16.0.0, SVG Export Plug-In . SVG Version: 6.00 Build 0)  -->
<!DOCTYPE svg PUBLIC "-//W3C//DTD SVG 1.1//EN" "http://www.w3.org/Graphics/SVG/1.1/DTD/svg11.dtd">
<svg version="1.1" id="Layer_1" xmlns="http://www.w3.org/2000/svg" xmlns:xlink="http://www.w3.org/1999/xlink" x="0px" y="0px"
	 width="500px" height="500px" viewBox="0 0 500 500" enable-background="new 0 0 500 500" xml:space="preserve">
<circle fill="#FFFFFF" cx="250" cy="250" r="245.684"/>
<path fill="#4BA2D9" d="M496.89,250.12c0,10.71-0.68,21.25-2.02,31.6C484.2,365.03,431.85,435.31,359.4,470.98
	C326.66,487.11,289.8,496.17,250.84,496.17C114.95,496.17,4.8,386.01,4.8,250.12C4.8,114.24,114.95,4.08,250.84,4.08
	C386.73,4.08,496.89,114.24,496.89,250.12z"/>
<path fill="#FFFFFF" d="M434.534,249.997c0,8.032-0.51,15.938-1.515,23.698c-8.003,62.484-47.265,115.194-101.602,141.946
	c-24.556,12.099-52.201,18.893-81.421,18.893c-101.918,0-184.531-82.62-184.531-184.537c0-101.911,82.613-184.531,184.531-184.531
	S434.534,148.086,434.534,249.997z"/>
<path fill="#FFFFFF" d="M373.022,249.998c0,5.355-0.34,10.625-1.01,15.799c-5.335,41.656-31.51,76.796-67.734,94.631
	c-16.37,8.065-34.801,12.595-54.28,12.595c-67.945,0-123.021-55.08-123.021-123.025c0-67.94,55.075-123.02,123.021-123.02
	S373.022,182.058,373.022,249.998z"/>
</svg>
