<?xml version="1.0" encoding="utf-8"?>
<!-- Generator: Adobe Illustrator 16.0.0, SVG Export Plug-In . SVG Version: 6.00 Build 0)  -->
<!DOCTYPE svg PUBLIC "-//W3C//DTD SVG 1.1//EN" "http://www.w3.org/Graphics/SVG/1.1/DTD/svg11.dtd">
<svg version="1.1" id="Layer_1" xmlns="http://www.w3.org/2000/svg" xmlns:xlink="http://www.w3.org/1999/xlink" x="0px" y="0px"
	 width="400px" height="400px" viewBox="0 0 400 400" enable-background="new 0 0 400 400" xml:space="preserve">
<circle fill="#3798D4" cx="200" cy="200" r="197.171"/>
<path fill-rule="evenodd" clip-rule="evenodd" fill="#FFFFFF" d="M96.585,304.628c-11.42-5.171-23.309-9.206-33.639-16.523
	c29.361,1.834,56.313-4.798,81.246-23.271c-5.772-1.747-10.804-2.536-15.556-4.192c-15.229-5.311-26.22-15.297-33.546-29.614
	c-2.356-4.609-1.592-6.256,3.726-6.22c5.2,0.035,10.53,0.86,17.745-1.302c-27.06-10.082-42.577-27.269-44.303-56.076
	c4.688,0.693,8.147,2.674,11.848,3.741c3.757,1.082,7.445,2.851,11.918,1.053c-15.632-12.405-23.422-28.42-23.428-48.085
	c-0.003-7.952,3.236-15.174,5.657-22.552c1.238-3.778,3.376-3.708,5.758-0.822c24.014,29.121,55.68,45.234,91.693,53.973
	c2.415,0.583,22.515,1.843,21.771-13.318c-1.15-23.447,21.309-50.382,45.63-52.942c2.64-0.855,25.146-0.188,27.957,0.755
	c8.27,2.772,15.222,7.398,21.854,12.668c2.478,1.97,4.136,2.615,7.698,1.877c10.585-2.195,19.964-7.108,30.46-11.99
	c-3.121,14.112-13.427,21.791-22.258,30.596c9.878-0.375,18.523-5.741,28.236-6.439c-4.251,10.045-13.229,16.065-20.795,23.002
	c-3.688,3.384-5.107,6.011-5.03,10.626c0.428,26.346-6.015,51.205-17.614,74.657c-15.275,30.888-38.053,55.056-68.582,71.056
	c-16.116,8.445-35.674,12.432-51.964,15.667C173.068,310.952,120.746,315.565,96.585,304.628z"/>
</svg>
