<?xml version="1.0" encoding="utf-8"?>
<!-- Generator: Adobe Illustrator 16.0.4, SVG Export Plug-In . SVG Version: 6.00 Build 0)  -->
<!DOCTYPE svg PUBLIC "-//W3C//DTD SVG 1.1//EN" "http://www.w3.org/Graphics/SVG/1.1/DTD/svg11.dtd">
<svg version="1.1" xmlns="http://www.w3.org/2000/svg" xmlns:xlink="http://www.w3.org/1999/xlink" x="0px" y="0px" width="200px"
	 height="200px" viewBox="0 0 200 200" enable-background="new 0 0 200 200" xml:space="preserve">
<g id="Layer_1">
	<path fill="#4EA2DA" d="M198,100c0,5.66-0.48,11.2-1.4,16.59c-1.449,8.49-3.989,16.601-7.479,24.2
		C173.66,174.55,139.56,198,100,198c-10.23,0-20.09-1.57-29.36-4.49c-0.55-0.17-1.1-0.35-1.65-0.529C30.06,180.01,2,143.28,2,100
		C2,45.88,45.88,2,100,2S198,45.88,198,100z"/>
</g>
<g id="Layer_2">
	<path fill="#2F8ECD" d="M196.6,116.59c-1.449,8.49-3.989,16.601-7.479,24.2C173.66,174.55,139.56,198,100,198
		c-10.23,0-20.09-1.57-29.36-4.49l-28.67-28.67c0-19.6,13.36-18.83,25.96-29.78c7.95-6.899,8.45-16.199,7.73-22.13
		c-3.17-2.75-5.95-6.02-8.23-9.689l57.91-57.91l2.42,2.42c0.05,0.05,0.09,0.1,0.141,0.15L196.6,116.59z"/>
	<path fill="#2F8ECD" d="M112.64,67.07l20.221,1.83l-21.971,4.19C65.22,58.02,97.4,23.34,123.6,49.76L112.64,67.07z"/>
	<path fill="#FFFFFF" d="M158.03,164.84H41.97c0-19.6,13.36-18.83,25.96-29.78c7.95-6.899,8.45-16.199,7.73-22.13
		c-3.17-2.75-5.95-6.02-8.23-9.689c-4.34-6.99-6.88-15.44-6.88-24.56c0-24.04,17.66-43.52,39.45-43.52
		c9.654,0,18.484,3.83,25.34,10.17v0l0.016,0.016c0.829,0.768,1.635,1.565,2.404,2.404c0.05,0.05,0.09,0.1,0.141,0.15
		c7.14,7.88,11.55,18.76,11.55,30.78c0,13.91-5.92,26.28-15.12,34.25c-0.71,5.931-0.21,15.23,7.74,22.13
		C144.67,146.01,158.03,145.24,158.03,164.84z"/>
</g>
</svg>
